<svg xmlns="http://www.w3.org/2000/svg" viewBox="0 0 1200 630">
  <!-- Literal colors only: the OG PNG is rasterized by librsvg, which does not resolve CSS custom properties. -->
  <style>.mono{font-family:monospace;letter-spacing:3px}.display{font-family:Arial,sans-serif;font-weight:700;letter-spacing:-4px}</style>
  <rect width="1200" height="630" fill="#101B2D"/>
  <g opacity=".1" stroke="#F2F4F1">
    <path d="M0 90H1200M0 180H1200M0 270H1200M0 360H1200M0 450H1200M0 540H1200"/>
    <path d="M120 0V630M240 0V630M360 0V630M480 0V630M600 0V630M720 0V630M840 0V630M960 0V630M1080 0V630"/>
  </g>
  <text x="74" y="83" class="mono" font-size="18" fill="#82C9B2">EVIDENCE &amp; COMPLIANCE OS</text>
  <text x="72" y="205" class="display" font-size="86" fill="#F2F4F1">Win before</text>
  <text x="72" y="292" class="display" font-size="86" fill="#F2F4F1">you write.</text>
  <text x="76" y="362" font-family="Arial,sans-serif" font-size="25" fill="#F2F4F1" opacity=".7">Every requirement. Dated evidence. Human approval.</text>
  <g transform="translate(748 96)">
    <g fill="none" stroke="#AEB8C5" opacity=".45">
      <path d="M30 50L174 22L298 96L410 38M30 50L104 184L266 204L410 38M104 184L76 300L252 332L388 260M266 204L388 260"/>
    </g>
    <g fill="#82C9B2"><rect x="18" y="38" width="24" height="24"/><rect x="163" y="11" width="22" height="22"/><rect x="92" y="172" width="24" height="24"/><rect x="254" y="192" width="24" height="24"/><rect x="65" y="289" width="22" height="22"/><rect x="240" y="320" width="24" height="24"/><rect x="376" y="248" width="24" height="24"/></g>
    <rect x="286" y="84" width="24" height="24" fill="#E8B45A"/>
    <rect x="398" y="26" width="24" height="24" fill="none" stroke="#E27770" stroke-width="2.5"/>
    <g transform="translate(120 372)">
      <rect width="62" height="38" fill="#82C9B2"/><rect x="70" width="62" height="38" fill="#82C9B2"/><rect x="140" width="62" height="38" fill="#E8B45A"/>
      <rect y="46" width="62" height="38" fill="#82C9B2"/><rect x="70" y="46" width="62" height="38" fill="none" stroke="#E27770" stroke-width="2.5"/><rect x="140" y="46" width="62" height="38" fill="#82C9B2"/>
    </g>
  </g>
  <text x="74" y="560" class="display" font-size="38" fill="#F2F4F1">Bevisa<tspan fill="#82C9B2">.</tspan></text>
  <text x="76" y="594" class="mono" font-size="13" fill="#F2F4F1" opacity=".45">BUILT IN STOCKHOLM</text>
</svg>
