<svg xmlns="http://www.w3.org/2000/svg" viewBox="0 0 800 500">
  <style>:root{--ink:#101B2D;--arkiv:#F2F4F1;--sigill:#82C9B2;--saknas:#E27770;--line:#AEB8C5}.m{font-family:monospace;letter-spacing:2px}</style>
  <rect width="800" height="500" fill="var(--ink)"/>
  <g opacity=".1" stroke="var(--arkiv)"><path d="M0 100H800M0 200H800M0 300H800M0 400H800"/><path d="M100 0V500M200 0V500M300 0V500M400 0V500M500 0V500M600 0V500M700 0V500"/></g>
  <path d="M330 76V440" stroke="var(--line)" stroke-width="2"/>
  <g fill="var(--sigill)">
    <rect x="306" y="84" width="48" height="18"/><rect x="306" y="122" width="48" height="18"/><rect x="306" y="160" width="48" height="18"/>
    <rect x="306" y="252" width="48" height="18"/><rect x="306" y="290" width="48" height="18"/><rect x="306" y="328" width="48" height="18"/><rect x="306" y="366" width="48" height="18"/><rect x="306" y="404" width="48" height="18"/>
  </g>
  <rect x="302" y="200" width="56" height="24" fill="var(--saknas)"/>
  <path d="M366 212H600" stroke="var(--saknas)" stroke-width="2"/>
  <text x="610" y="217" class="m" font-size="13" fill="var(--saknas)">HUMAN REVIEW</text>
  <g class="m" font-size="12" fill="var(--arkiv)" opacity=".55"><text x="380" y="98">KRAV-001</text><text x="380" y="136">KRAV-002</text><text x="380" y="304">KRAV-072</text><text x="380" y="418">KRAV-147</text></g>
  <text x="34" y="52" class="m" font-size="15" fill="var(--sigill)">02 · 147 REQUIREMENTS</text>
  <text x="34" y="470" class="m" font-size="12" fill="var(--arkiv)" opacity=".45">AMBIGUITY REMAINS VISIBLE</text>
</svg>
