<svg xmlns="http://www.w3.org/2000/svg" viewBox="0 0 800 500">
  <style>:root{--ink:#101B2D;--arkiv:#F2F4F1;--sigill:#1E7A5F;--expiry:#C8891A;--saknas:#B23A31;--graphite:#5A6472}.m{font-family:monospace;letter-spacing:2px}</style>
  <rect width="800" height="500" fill="var(--ink)"/><g transform="translate(115 92)"><g fill="none" stroke="var(--graphite)"><rect width="570" height="285"/><path d="M0 57H570M0 114H570M0 171H570M0 228H570M95 0V285M190 0V285M285 0V285M380 0V285M475 0V285"/></g><g fill="var(--sigill)" opacity=".8"><rect x="8" y="8" width="79" height="41"/><rect x="103" y="8" width="79" height="41"/><rect x="198" y="65" width="79" height="41"/><rect x="293" y="122" width="79" height="41"/><rect x="388" y="179" width="79" height="41"/><rect x="483" y="236" width="79" height="41"/></g><rect x="293" y="8" width="79" height="41" fill="var(--expiry)"/><rect x="103" y="179" width="79" height="41" fill="var(--saknas)"/></g><path d="M90 330H710" stroke="var(--arkiv)" stroke-width="3"/><rect x="280" y="352" width="240" height="46" fill="var(--sigill)"/><text x="400" y="381" text-anchor="middle" class="m" font-size="14" fill="var(--arkiv)">GODKÄND</text>
  <text x="34" y="52" class="m" font-size="14" fill="var(--sigill)">05 · HUMAN GATE</text><text x="34" y="470" class="m" font-size="12" fill="var(--arkiv)" opacity=".45">APPROVE BEFORE EXPORT</text>
</svg>
